# xmcd
#
# Track frame offsets:
#	150
#	19365
#	33252
#	53184
#	68377
#	85724
#	105765
#	120466
#	134892
#	152151
#	169410
#	183101
#	203621
#	223223
#	240892
#
# Disc length: 3475 seconds
#
# Revision: 0
# Processed by: cddbd v1.5.1PL0 Copyright (c) Steve Scherf et al.
# Submitted via: audiograbber 1.83.01
#
DISCID=c00d910f
DTITLE=Various Artist - SC8881
DYEAR=1900
DGENRE=KARAOKE
TTITLE0=Andy Griggs - She Thinks She Needs Me
TTITLE1=Travis Tritt - Girl's Gone Wild, The
TTITLE2=Montgomery Gentry - I Got Drunk
TTITLE3=David Lee Murphy - Loco
TTITLE4=Rachel Proctor - Me And Emily
TTITLE5=Mindy Smith - Come To Jesus
TTITLE6=Amy Dalley - Men Don't Change
TTITLE7=Billy Dean - Thank God I'm A Country Boy
TTITLE8=Buddy Jewell - One Step At A Time
TTITLE9=Jenkins - Blame It On Mama
TTITLE10=Loretta Lynn - Miss Being Mrs.
TTITLE11=Dolly Parton - Welcome Home
TTITLE12=Warren Brothers, The - Sell A Lot Of Beer
TTITLE13=Montgomery Gentry - You Do Your Thing
TTITLE14=Gretchen Wilson - When I Think About Cheatin'
EXTD=
EXTT0=
EXTT1=
EXTT2=
EXTT3=
EXTT4=
EXTT5=
EXTT6=
EXTT7=
EXTT8=
EXTT9=
EXTT10=
EXTT11=
EXTT12=
EXTT13=
EXTT14=
PLAYORDER=
